<?xml version="1.0" standalone="no"?>
<!DOCTYPE svg PUBLIC "-//W3C//DTD SVG 20010904//EN"
 "http://www.w3.org/TR/2001/REC-SVG-20010904/DTD/svg10.dtd">
<svg version="1.0" xmlns="http://www.w3.org/2000/svg"
 width="512.000000pt" height="512.000000pt" viewBox="0 0 512.000000 512.000000"
 preserveAspectRatio="xMidYMid meet">
<metadata>
Created by potrace 1.11, written by Peter Selinger 2001-2013
</metadata>
<g transform="translate(0.000000,512.000000) scale(0.100000,-0.100000)"
fill="#000000" stroke="none">
<path d="M2629 5063 c-13 -16 -12 -17 4 -4 16 13 21 21 13 21 -2 0 -10 -8 -17
-17z"/>
<path d="M2566 5055 c-3 -8 -12 -12 -21 -9 -8 3 -15 1 -15 -6 0 -6 4 -9 9 -5
5 3 12 1 15 -4 4 -5 2 -12 -3 -15 -5 -4 -13 -1 -16 5 -4 5 -14 8 -22 5 -8 -3
-11 -2 -8 3 3 5 1 12 -4 15 -5 4 -8 -4 -7 -17 2 -14 -2 -24 -10 -24 -7 0 -11
9 -9 19 2 10 0 16 -5 13 -4 -3 -7 -17 -5 -32 2 -22 0 -24 -9 -13 -6 8 -20 22
-31 30 -19 14 -19 14 -6 -2 15 -21 2 -24 -19 -5 -12 10 -12 9 -1 -5 9 -12 10
-18 2 -18 -6 0 -11 -5 -11 -10 0 -6 11 -4 23 5 19 12 24 12 24 2 0 -8 -5 -14
-11 -15 -38 -3 -76 -22 -46 -22 7 0 11 -2 8 -5 -3 -3 -13 -3 -22 1 -12 5 -14
10 -6 19 8 10 8 15 -1 21 -7 4 -9 3 -5 -4 3 -6 2 -13 -3 -16 -13 -9 -6 -42 9
-38 6 1 8 -3 5 -9 -5 -7 -11 -7 -17 -1 -12 12 -71 -15 -63 -29 10 -15 -1 -10
-15 7 -11 12 -11 15 0 12 7 -2 15 4 17 12 4 12 3 12 -5 2 -5 -8 -13 -13 -18
-13 -5 0 -8 -10 -8 -24 1 -13 -3 -22 -8 -19 -4 3 -6 9 -3 14 3 4 -1 10 -9 13
-10 4 -12 0 -9 -14 3 -11 0 -19 -6 -19 -7 0 -9 5 -6 11 4 6 -2 5 -14 -3 -12
-7 -21 -18 -21 -24 0 -6 -7 -17 -15 -24 -10 -9 -15 -9 -15 -1 0 6 4 11 9 11 6
0 9 9 8 19 0 11 -5 17 -9 15 -5 -3 -5 -10 -2 -16 5 -8 1 -9 -10 -5 -10 4 -15
3 -11 -3 7 -12 -12 -50 -25 -50 -6 0 -10 5 -10 11 0 5 6 7 13 3 8 -5 8 -2 -2
9 -15 19 -26 23 -15 5 5 -8 2 -9 -11 -4 -16 6 -16 4 -4 -11 12 -15 12 -16 -5
-10 -17 7 -17 6 -5 -9 13 -16 12 -16 -11 -4 -24 13 -24 12 -10 -5 14 -17 14
-18 -7 -6 -15 7 -20 17 -17 29 5 14 4 15 -5 2 -7 -11 -5 -20 7 -34 11 -12 12
-16 3 -11 -11 6 -13 4 -8 -8 4 -12 2 -14 -11 -10 -9 3 -23 11 -30 16 -9 7 -11
5 -6 -8 5 -13 4 -16 -5 -11 -16 10 -60 -34 -54 -53 4 -14 4 -14 -6 -1 -6 8 -8
24 -5 35 4 17 3 17 -8 -3 -11 -18 -16 -20 -28 -10 -12 11 -12 10 -1 -4 7 -10
17 -15 22 -12 5 3 9 1 9 -5 0 -5 -10 -11 -22 -13 -13 -2 -22 -9 -20 -16 2 -9
-3 -10 -16 -3 -23 12 -47 -2 -39 -23 10 -25 -9 -19 -21 7 -6 12 -11 16 -11 9
-1 -7 4 -23 10 -34 11 -20 10 -20 -12 -4 -32 22 -47 20 -18 -2 15 -13 19 -21
10 -26 -7 -4 -10 -2 -9 4 2 7 -8 14 -22 15 -14 2 -19 1 -12 -1 6 -3 12 -10 12
-15 0 -6 -4 -7 -10 -4 -5 3 -10 -2 -10 -12 0 -15 -2 -15 -9 -3 -6 8 -7 18 -4
24 3 5 1 6 -6 2 -6 -4 -8 -12 -5 -18 4 -6 -1 -8 -14 -4 -12 4 -23 2 -28 -5 -4
-8 -3 -9 4 -5 7 4 20 2 29 -4 14 -8 14 -10 3 -9 -38 4 -49 -1 -43 -18 4 -12 0
-11 -11 5 -10 12 -22 22 -28 22 -7 0 -3 -7 8 -16 19 -15 19 -15 -2 -11 -12 3
-21 -1 -21 -8 0 -8 9 -12 19 -10 10 2 16 0 13 -5 -6 -10 -24 -8 -43 4 -7 4
-16 5 -19 2 -4 -3 -1 -6 5 -6 7 0 12 -4 12 -10 0 -5 -6 -7 -14 -4 -7 3 -16 -2
-20 -11 -5 -13 -1 -15 17 -10 19 5 20 4 4 -5 -9 -6 -22 -8 -28 -5 -6 4 -16 -1
-23 -11 -9 -12 -15 -14 -20 -6 -4 7 3 17 18 24 14 6 26 15 26 20 0 13 -9 10
-32 -12 -12 -10 -25 -17 -31 -13 -5 3 -4 -5 3 -17 7 -12 8 -20 3 -17 -6 4 -19
-2 -29 -11 -23 -21 -89 -29 -78 -10 4 8 3 10 -2 5 -5 -5 -9 -14 -9 -20 0 -7
-6 -13 -12 -13 -7 -1 -15 -3 -18 -4 -3 -1 -10 -3 -17 -4 -16 -2 -21 -23 -7
-32 9 -5 10 -2 6 9 -4 11 -2 14 9 10 7 -3 14 1 14 8 0 7 3 9 7 6 3 -4 12 -2
20 4 9 9 13 8 13 0 0 -6 -5 -11 -11 -11 -5 0 -7 -5 -3 -12 4 -7 3 -8 -5 -4
-15 10 -43 -13 -34 -28 3 -6 0 -6 -8 2 -18 17 -32 15 -25 -4 3 -9 2 -12 -5 -9
-5 4 -7 16 -4 28 5 21 5 21 -6 0 -7 -13 -16 -23 -21 -23 -5 0 -7 4 -3 9 3 5 2
12 -3 15 -13 8 -11 -28 2 -37 6 -5 -3 -7 -21 -4 -24 2 -30 0 -23 -8 7 -9 5
-16 -5 -25 -8 -7 -15 -9 -15 -4 0 5 -8 0 -17 -11 -13 -16 -15 -17 -10 -2 4 9
2 17 -3 17 -6 0 -10 -6 -10 -14 0 -21 -20 -30 -33 -17 -9 9 -8 11 6 6 10 -5
17 -2 17 6 0 7 -3 9 -7 6 -3 -4 -12 -2 -19 4 -10 8 -12 5 -8 -17 4 -23 3 -25
-9 -15 -12 10 -17 6 -28 -18 -7 -16 -17 -27 -21 -25 -5 3 -6 9 -3 14 3 5 0 12
-6 16 -8 5 -9 3 -4 -6 6 -10 4 -12 -9 -7 -11 5 -15 3 -10 -5 5 -7 2 -9 -8 -5
-12 4 -14 1 -11 -13 6 -21 -12 -36 -23 -19 -4 8 -3 9 4 5 8 -5 10 -1 5 10 -4
11 -8 13 -11 6 -2 -7 -9 -9 -15 -5 -7 4 -6 -1 2 -10 7 -9 10 -17 5 -17 -5 0
-2 -5 6 -11 12 -8 10 -9 -9 -4 -15 5 -21 3 -17 -3 3 -6 2 -13 -3 -16 -11 -7
-9 13 2 31 6 9 3 11 -7 7 -9 -3 -16 -15 -16 -25 0 -10 -4 -19 -10 -19 -5 0 -7
8 -4 18 5 16 5 16 -6 -1 -6 -9 -16 -14 -22 -11 -7 4 -8 2 -4 -5 4 -6 13 -8 19
-5 7 4 2 -4 -11 -18 -29 -32 -54 -33 -46 -2 3 12 2 24 -3 27 -5 3 -9 -4 -9
-16 1 -14 -4 -21 -13 -19 -12 3 -12 0 -1 -13 7 -8 10 -18 6 -22 -3 -4 -13 2
-20 13 -14 18 -15 18 -21 2 -4 -10 -12 -15 -18 -11 -6 3 -7 1 -3 -5 10 -17 24
-15 29 6 4 16 5 16 6 -1 0 -10 -7 -20 -16 -23 -10 -3 -26 -10 -36 -15 -10 -5
-23 -7 -29 -3 -7 5 -9 0 -5 -15 4 -18 3 -20 -9 -10 -8 6 -14 19 -15 28 0 9 -3
11 -5 4 -3 -7 0 -22 7 -35 9 -19 9 -21 -2 -10 -16 14 -33 16 -24 2 3 -5 -1
-10 -9 -10 -10 0 -13 7 -11 20 2 11 0 18 -5 15 -4 -3 -7 -16 -5 -30 1 -14 -4
-30 -11 -36 -8 -6 -14 -8 -14 -3 0 5 -10 -2 -21 -16 -11 -14 -18 -19 -14 -13
3 7 1 21 -4 30 -6 10 -11 13 -11 6 0 -7 -12 -19 -27 -27 -16 -8 -23 -15 -18
-16 6 0 22 8 35 17 20 13 22 14 13 2 -7 -9 -10 -19 -6 -23 4 -4 -1 -4 -11 0
-12 5 -17 4 -13 -3 4 -6 -3 -8 -20 -5 -15 3 -23 1 -20 -5 3 -5 1 -15 -5 -23
-8 -12 -9 -12 -4 3 3 9 0 17 -5 17 -7 0 -9 -11 -7 -24 4 -17 1 -23 -9 -19 -7
3 -10 10 -6 16 3 6 1 7 -6 3 -8 -6 -9 -12 -2 -20 6 -7 8 -16 4 -20 -4 -3 -8
-14 -9 -24 -2 -9 -8 -18 -14 -20 -8 -3 -7 -8 1 -18 10 -12 9 -13 -5 -8 -19 7
-20 16 -4 32 7 7 8 12 4 12 -5 0 -2 8 5 17 12 14 12 16 0 8 -11 -6 -13 -4 -8
9 4 11 3 15 -4 11 -6 -4 -8 -13 -5 -20 3 -8 -2 -19 -9 -25 -11 -9 -12 -17 -5
-30 5 -10 7 -20 2 -23 -4 -2 -1 -2 6 0 9 2 11 -3 7 -18 -4 -11 -1 -26 5 -34 7
-8 9 -15 4 -15 -5 0 -2 -5 6 -10 8 -5 10 -10 3 -10 -13 0 -12 -17 1 -40 5 -8
6 -12 1 -8 -4 4 -14 0 -22 -10 -9 -10 -11 -11 -7 -2 7 12 5 13 -8 3 -8 -7 -18
-11 -21 -8 -4 3 -4 2 -1 -2 6 -8 10 -9 37 -12 7 0 13 -11 14 -22 2 -20 1 -20
-11 -4 -10 14 -15 15 -21 5 -5 -9 -4 -11 3 -6 9 5 12 -8 12 -44 0 -28 -4 -49
-9 -46 -10 7 -9 -13 2 -31 4 -6 1 -14 -5 -17 -7 -3 -2 -3 12 0 14 3 20 2 15
-3 -12 -9 -13 -23 -2 -40 5 -7 5 -13 0 -13 -4 0 -1 -5 7 -10 8 -5 10 -10 3
-10 -13 0 -12 -17 1 -40 5 -8 6 -12 1 -8 -4 4 -14 0 -22 -10 -9 -10 -11 -11
-7 -2 7 12 5 13 -8 3 -8 -7 -18 -11 -21 -8 -4 3 -4 2 -1 -2 6 -8 10 -9 37 -12
8 0 14 -8 14 -16 0 -10 -4 -12 -12 -5 -9 7 -16 6 -24 -4 -9 -10 -9 -16 -1 -21
6 -4 14 -4 17 -1 4 3 1 6 -6 6 -7 0 -9 4 -6 10 4 6 11 5 19 -3 10 -9 11 -14 2
-19 -7 -5 -3 -8 9 -8 17 0 17 -2 5 -10 -8 -5 -11 -10 -6 -10 5 0 3 -6 -3 -13
-6 -8 -8 -17 -4 -21 4 -4 -1 -4 -12 -1 -16 6 -17 5 -5 -4 8 -6 11 -11 6 -11
-4 0 -1 -11 8 -24 11 -18 13 -27 4 -32 -7 -5 -8 -3 -3 6 5 8 4 11 -3 6 -6 -4
-9 -13 -6 -21 4 -8 10 -13 14 -10 5 3 12 0 16 -7 4 -7 4 -10 -1 -6 -4 4 -15 2
-23 -5 -11 -8 -14 -8 -9 0 4 6 4 14 -1 17 -4 2 -9 -4 -9 -15 -1 -15 3 -19 16
-14 11 3 21 0 24 -8 3 -8 -1 -14 -9 -14 -7 0 -11 4 -8 9 3 4 -2 5 -11 1 -12
-4 -13 -8 -5 -13 9 -6 9 -9 -1 -14 -8 -3 -5 -4 7 -1 14 4 21 0 21 -9 0 -9 -4
-13 -9 -10 -8 5 -12 -17 -9 -45 2 -7 -2 -11 -7 -7 -5 3 -9 -1 -9 -9 0 -8 4
-12 8 -10 4 3 10 -2 13 -11 4 -12 2 -15 -9 -11 -8 4 -17 1 -21 -5 -4 -6 -3 -8
3 -5 6 4 19 -1 29 -9 10 -9 15 -13 9 -11 -5 3 -16 -2 -24 -10 -12 -13 -11 -14
6 -9 13 4 23 2 26 -7 3 -8 -1 -14 -9 -14 -7 0 -11 4 -8 9 3 4 -2 5 -11 2 -14
-6 -14 -8 2 -21 10 -8 13 -12 6 -9 -7 4 -10 -1 -8 -11 1 -10 -5 -27 -14 -38
-15 -18 -15 -19 2 -6 24 18 24 -5 -1 -33 -16 -20 -16 -20 1 -7 15 12 17 11 17
-4 0 -10 7 -23 16 -29 13 -10 13 -12 -5 -12 -11 0 -18 4 -15 7 2 4 0 10 -5 13
-13 8 -8 -14 8 -39 9 -15 11 -16 7 -2 -7 23 1 22 14 -3 6 -11 7 -20 3 -19 -4
1 -17 1 -28 0 -18 -1 -18 -2 3 -17 12 -8 20 -20 17 -25 -4 -5 0 -9 7 -9 8 0 9
-3 3 -8 -13 -8 -13 -22 -1 -42 5 -8 6 -12 1 -8 -4 4 -14 0 -22 -10 -9 -10 -11
-11 -7 -2 7 12 5 13 -8 3 -8 -7 -18 -11 -21 -8 -4 3 -4 2 -1 -2 6 -8 10 -9 37
-12 12 -1 16 -40 7 -61 -1 -3 -2 -9 -1 -13 1 -4 -8 -3 -20 3 -11 7 -23 9 -26
7 -2 -3 5 -8 16 -12 12 -3 19 -10 16 -15 -3 -5 0 -12 6 -16 8 -4 9 -3 5 4 -4
7 -3 12 3 12 5 0 9 -9 8 -19 -1 -12 -6 -17 -15 -13 -12 4 -12 1 -2 -19 13 -23
12 -23 -5 -9 -17 13 -18 13 -10 0 17 -27 17 -53 0 -46 -29 11 -14 -5 18 -19
17 -8 26 -14 19 -15 -7 0 -11 -4 -7 -9 3 -5 1 -12 -5 -16 -6 -4 -8 -11 -5 -16
3 -5 -2 -6 -12 -3 -15 5 -16 4 -3 -5 8 -6 11 -11 6 -11 -4 0 -1 -11 8 -24 11
-18 13 -27 4 -32 -7 -5 -8 -3 -3 6 5 8 4 11 -3 6 -6 -4 -9 -13 -6 -21 4 -8 10
-13 14 -10 5 3 12 0 16 -7 4 -7 4 -10 -1 -6 -4 4 -15 2 -23 -5 -11 -8 -14 -8
-9 0 4 6 4 14 -1 17 -4 2 -9 -4 -9 -15 -1 -15 3 -19 16 -14 11 3 21 0 24 -8 3
-8 -1 -14 -9 -14 -7 0 -11 4 -8 9 3 4 -2 5 -11 1 -12 -4 -13 -8 -5 -13 9 -6 9
-9 -1 -14 -8 -3 -5 -4 7 -1 14 4 21 0 21 -9 0 -9 -4 -13 -8 -11 -14 9 -17 -36
-3 -49 11 -12 11 -15 -2 -20 -8 -3 -12 -2 -9 3 3 5 2 12 -3 15 -4 2 -9 -4 -9
-15 -1 -15 3 -19 17 -14 10 3 21 1 25 -4 4 -7 -1 -8 -11 -4 -13 5 -15 3 -8 -8
15 -25 14 -42 -2 -28 -7 6 -11 16 -7 23 3 6 0 5 -8 -2 -12 -11 -12 -14 0 -22
12 -7 12 -11 2 -23 -8 -10 -9 -17 -1 -22 5 -3 10 -11 10 -16 0 -6 -4 -8 -8 -5
-5 3 -9 -2 -9 -11 0 -13 4 -12 18 5 14 18 18 19 23 6 3 -8 2 -12 -3 -9 -16 9
-24 -15 -11 -30 7 -8 9 -15 4 -15 -5 0 -2 -5 6 -10 8 -5 10 -10 3 -10 -13 0
-12 -17 1 -40 5 -8 6 -12 1 -8 -4 4 -14 0 -22 -10 -9 -10 -11 -11 -7 -2 7 12
5 13 -8 3 -8 -7 -18 -11 -21 -8 -4 3 -4 2 -1 -2 6 -8 10 -9 37 -12 7 0 13 -11
14 -22 2 -20 1 -20 -11 -4 -10 14 -15 15 -21 5 -5 -9 -4 -11 3 -6 9 5 12 -8
12 -44 0 -28 -4 -49 -9 -46 -10 7 -9 -13 2 -31 4 -6 1 -14 -5 -17 -7 -3 -2 -3
12 0 19 4 22 3 10 -5 -8 -6 -11 -11 -6 -11 5 0 3 -6 -3 -13 -6 -8 -8 -17 -4
-20 3 -4 0 -14 -8 -24 -9 -11 -10 -14 -2 -9 8 4 13 2 13 -5 0 -6 8 -9 18 -7
14 4 18 -2 20 -31 3 -65 6 -80 15 -74 5 3 6 11 3 19 -4 11 -1 12 13 5 10 -6
22 -7 26 -3 5 4 5 1 1 -6 -4 -7 -12 -9 -18 -6 -7 4 -8 2 -4 -4 4 -7 2 -12 -5
-12 -7 0 -10 -3 -7 -6 4 -3 16 0 29 6 19 11 21 10 16 -4 -4 -10 -3 -15 3 -11
6 3 10 1 10 -5 0 -6 5 -8 10 -5 6 3 10 -1 10 -10 0 -9 4 -14 10 -10 5 3 6 13
3 23 -6 16 -6 16 10 0 19 -18 23 -33 7 -23 -6 3 -7 -1 -4 -9 3 -9 10 -16 16
-16 5 0 6 5 3 10 -3 6 2 10 11 10 10 0 14 -3 11 -6 -11 -11 63 -63 80 -57 12
5 14 3 8 -8 -7 -11 -5 -11 10 1 15 12 17 12 10 1 -6 -11 -4 -13 8 -8 9 3 18 0
21 -9 3 -8 2 -12 -3 -9 -5 3 -12 1 -15 -4 -9 -14 19 -7 40 9 17 14 18 14 6 -2
-9 -11 -11 -22 -4 -34 8 -15 9 -15 15 0 5 12 3 15 -6 10 -9 -5 -8 -3 1 7 10
11 14 11 21 1 4 -7 15 -14 23 -16 21 -3 49 -26 43 -36 -3 -4 2 -13 10 -20 8
-7 12 -17 9 -22 -4 -6 6 -2 22 8 21 13 26 14 17 3 -8 -9 -9 -20 -3 -29 6 -8
10 -10 10 -4 0 6 10 10 23 9 12 -1 24 1 27 4 3 4 15 -4 26 -16 20 -20 20 -21
4 -20 -10 1 -16 6 -13 12 4 5 3 7 -2 3 -4 -4 -15 -2 -24 4 -9 7 -13 8 -9 4 4
-5 2 -16 -5 -25 -10 -14 -10 -14 5 -3 9 7 19 9 22 4 9 -15 61 -9 58 7 -3 12 0
12 12 1 19 -15 20 -21 5 -17 -6 1 -14 -4 -16 -12 -4 -10 1 -11 18 -6 21 7 22
6 10 -9 -12 -14 -12 -16 3 -10 12 5 15 2 10 -12 -4 -15 -2 -14 8 2 11 18 15
20 26 8 6 -7 20 -11 30 -7 9 3 14 3 10 -1 -11 -13 -43 -14 -51 -2 -6 7 -7 7
-5 -2 2 -8 6 -12 9 -10 3 2 14 -4 24 -12 11 -9 16 -10 11 -3 -4 7 -2 13 3 13
6 0 11 -8 11 -17 1 -17 1 -17 14 0 12 16 14 16 20 2 3 -9 11 -13 16 -10 6 4
10 3 9 -2 -3 -19 2 -33 12 -33 5 0 7 6 3 12 -5 9 -2 9 9 -1 14 -11 17 -11 17
0 0 8 5 5 14 -6 8 -11 12 -28 11 -37 -2 -10 0 -16 6 -13 5 4 9 13 9 21 0 8 5
14 11 14 5 0 8 -4 5 -9 -9 -13 3 -39 21 -45 13 -5 14 -4 4 8 -8 10 -9 16 -1
21 5 3 11 4 11 1 1 -3 3 -10 4 -16 1 -5 3 -14 4 -20 0 -5 6 -10 12 -10 5 0 7
4 4 10 -3 5 -2 10 3 10 6 0 13 -7 16 -16 4 -10 13 -13 28 -9 20 5 21 5 5 -5
-14 -9 -22 -8 -35 2 -15 11 -15 11 -5 -3 7 -9 9 -19 5 -24 -4 -4 3 -3 15 4 28
14 33 14 33 -4 0 -8 5 -15 11 -15 5 0 8 4 4 9 -3 5 0 13 6 17 8 4 9 3 5 -4 -4
-7 -2 -12 5 -12 9 0 9 -3 0 -14 -9 -11 -9 -16 0 -22 7 -4 10 -3 6 2 -3 5 6 14
19 21 13 6 22 7 19 3 -3 -5 -1 -11 5 -15 6 -4 8 -11 5 -16 -4 -5 -1 -17 4 -26
6 -10 11 -12 11 -6 0 7 11 12 24 11 14 -1 22 -6 20 -10 -3 -4 0 -8 5 -8 6 0
11 5 11 12 0 6 3 8 6 5 4 -4 1 -14 -7 -23 -13 -16 -11 -17 13 -12 17 3 29 0
32 -8 3 -8 10 -14 16 -14 6 0 8 5 4 12 -4 7 -3 8 5 4 6 -4 9 -11 6 -16 -3 -4
6 -11 20 -14 14 -4 25 -13 25 -22 0 -8 5 -12 10 -9 6 3 10 1 10 -4 0 -6 -5
-11 -12 -11 -6 0 -9 -2 -6 -5 11 -12 37 7 31 23 -4 14 -3 15 5 2 8 -10 8 -18
0 -27 -6 -8 -8 -16 -4 -20 3 -3 6 -1 6 5 0 7 4 12 10 12 5 0 9 -5 7 -11 -1 -6
4 -14 11 -16 6 -3 12 0 12 7 0 6 -4 9 -8 6 -4 -2 -9 4 -9 15 -1 10 3 19 8 19
6 0 7 -5 4 -10 -3 -6 1 -13 10 -16 9 -4 14 -13 11 -21 -4 -8 -1 -11 5 -7 8 4
9 -1 4 -16 -5 -16 -4 -20 5 -15 6 4 10 18 8 30 -3 16 -1 22 8 18 7 -2 10 -11
7 -19 -3 -8 0 -14 6 -14 6 0 11 6 11 13 0 7 5 5 11 -5 5 -10 17 -15 27 -12 14
5 14 4 2 -4 -8 -6 -17 -9 -20 -7 -4 2 -7 -2 -7 -10 0 -8 4 -15 9 -15 4 0 8 5
8 10 0 6 5 10 11 10 6 0 8 -10 5 -22 -3 -13 -3 -17 0 -10 8 17 27 15 21 -3 -4
-8 -1 -17 5 -21 7 -4 8 -3 4 4 -3 6 2 15 12 21 14 7 19 6 19 -4 0 -8 -4 -12
-9 -9 -4 3 -8 1 -8 -4 0 -6 7 -13 16 -16 8 -3 12 -2 9 4 -3 6 -1 10 4 10 6 0
11 -5 11 -11 0 -6 7 -8 16 -5 12 5 15 2 10 -10 -5 -13 -3 -14 7 -6 9 8 17 8
27 0 12 -8 12 -9 -2 -4 -10 3 -18 1 -18 -4 0 -6 9 -10 20 -10 11 0 20 5 20 11
0 6 9 1 20 -12 13 -16 19 -19 20 -9 0 11 3 11 12 2 9 -9 9 -15 -1 -24 -9 -8
-12 -9 -7 -1 9 16 -21 10 -37 -7 -10 -12 -9 -12 4 -2 9 6 19 9 23 5 3 -4 12
-8 19 -9 7 -2 26 -7 42 -12 17 -5 38 -8 47 -6 10 1 16 -3 15 -9 -1 -7 3 -11 8
-10 6 1 12 -8 12 -19 1 -12 8 -25 15 -29 12 -8 51 -13 71 -10 14 2 7 -18 -10
-28 -10 -6 -12 -11 -6 -11 7 0 22 9 33 20 22 22 25 19 9 -12 -7 -13 -8 -23 -1
-30 7 -7 10 -4 9 8 -2 20 20 26 41 11 6 -5 12 -6 12 -2 0 5 9 0 19 -9 10 -9
17 -25 14 -35 -4 -14 2 -18 26 -18 17 0 28 5 24 10 -3 6 -1 7 6 3 6 -4 9 -12
6 -17 -4 -5 1 -9 10 -9 8 0 18 -7 21 -15 4 -8 11 -12 16 -9 6 4 5 10 -3 15
-11 7 -10 9 3 9 9 0 18 -3 21 -7 2 -5 2 -3 1 4 -2 6 4 17 12 23 8 7 14 9 14 4
0 -5 5 -2 10 6 8 12 10 12 10 1 0 -11 3 -11 15 -1 8 7 12 16 9 21 -3 5 0 9 5
9 6 0 11 -4 11 -10 0 -5 5 -10 11 -10 5 0 7 6 4 13 -4 6 3 1 15 -13 19 -22 20
-22 11 -3 -16 32 -14 47 5 29 8 -9 20 -16 25 -16 6 0 3 7 -5 16 -22 22 -20 27
7 13 20 -11 21 -11 8 5 -12 15 -12 17 0 14 8 -2 13 3 11 10 -1 8 2 11 7 7 6
-3 7 -13 4 -22 -5 -11 -3 -14 6 -9 7 5 11 17 8 27 -3 11 -1 17 3 14 5 -3 11 1
14 7 3 7 3 2 0 -12 -4 -17 -2 -21 4 -12 5 8 12 13 16 13 23 -3 26 0 16 19 -10
19 -10 20 9 8 11 -6 17 -16 14 -22 -3 -5 -1 -6 6 -2 6 4 8 12 5 18 -5 8 -1 9
10 5 9 -4 15 -3 11 2 -6 10 21 41 36 41 5 0 9 -4 9 -10 0 -5 -5 -9 -11 -7 -6
1 -13 -4 -15 -11 -1 -7 0 -8 3 -2 2 5 9 8 13 5 5 -3 14 4 20 15 6 11 15 18 21
15 5 -4 9 -3 8 2 -3 18 2 33 11 33 5 0 7 -6 4 -14 -6 -16 19 -16 33 -1 4 4 2
5 -4 1 -8 -4 -13 -1 -13 8 0 8 -6 17 -12 20 -7 3 -2 3 12 0 14 -4 28 -11 31
-16 3 -5 9 -3 12 6 3 8 1 18 -5 22 -7 4 -8 3 -4 -4 5 -8 1 -10 -9 -5 -12 4
-13 8 -4 13 16 11 45 5 42 -9 -2 -6 1 -11 7 -11 5 0 7 13 6 28 -3 21 0 28 14
29 13 1 17 -3 13 -13 -3 -7 -10 -11 -16 -7 -6 4 -7 1 -2 -7 6 -10 11 -9 22 5
16 23 17 49 1 39 -7 -5 -8 -3 -3 6 6 10 11 9 22 -5 11 -16 13 -17 13 -3 0 9 5
20 12 24 7 4 8 3 4 -4 -4 -7 -3 -12 2 -12 16 0 22 13 11 26 -7 8 -6 14 2 20 7
4 9 3 5 -4 -3 -6 -2 -14 4 -17 6 -4 8 -16 5 -28 -3 -12 2 -7 12 10 9 19 24 33
35 33 11 0 23 11 28 25 5 14 12 25 15 25 4 0 4 -4 1 -9 -3 -5 1 -11 9 -14 9
-4 12 -1 9 7 -3 8 0 17 5 21 6 3 8 12 5 18 -5 9 -4 9 5 1 13 -12 61 -7 61 7 0
5 -6 7 -12 5 -7 -1 -10 -1 -6 1 4 3 10 4 14 3 4 -1 11 4 16 12 7 10 12 9 24
-7 11 -14 15 -15 14 -5 -1 8 -2 24 -1 35 1 17 3 18 11 5 9 -15 11 -13 14 13 1
16 28 16 42 -2 6 -7 17 -11 25 -8 11 4 10 6 -2 6 -9 1 -19 10 -22 20 -3 15 -1
18 11 14 11 -5 13 -3 7 7 -5 9 -4 11 4 6 9 -6 9 -12 -1 -24 -7 -10 -8 -14 -4
-10 5 4 15 3 23 -4 11 -9 13 -8 11 3 -2 8 2 13 8 12 13 -2 15 30 2 38 -5 3 -2
9 7 12 9 4 13 3 10 -3 -3 -6 -1 -10 5 -10 6 0 8 -5 4 -12 -4 -7 -3 -8 5 -4 6
4 8 12 5 18 -5 8 -1 9 12 5 18 -7 18 -6 -1 9 -16 13 -17 16 -3 11 12 -4 21 1
28 14 6 11 15 17 20 14 4 -3 22 7 39 21 17 14 31 22 31 17 0 -4 4 -2 9 6 6 9
11 10 15 2 6 -10 -6 -15 -26 -12 -4 0 -5 -6 -2 -14 5 -12 8 -12 22 2 10 9 15
19 14 21 -2 3 4 9 13 15 12 6 21 4 32 -10 10 -12 10 -9 -2 11 -9 16 -12 25 -6
22 6 -4 18 2 27 13 17 20 48 18 38 -3 -3 -6 2 -2 10 8 9 11 19 17 22 13 4 -4
1 -15 -7 -24 -13 -16 -12 -17 3 -5 11 9 16 24 14 43 -2 16 1 32 7 36 5 3 7 1
3 -5 -3 -6 -2 -13 4 -17 6 -4 7 -12 3 -18 -5 -8 -2 -8 9 0 8 7 19 9 23 5 5 -4
5 -2 2 4 -6 11 18 29 34 26 3 0 6 6 6 14 0 12 -2 12 -16 0 -12 -11 -21 -12
-31 -5 -12 9 -11 10 4 5 13 -4 17 -2 13 7 -7 18 43 14 54 -5 5 -7 9 -9 9 -4 0
5 -8 18 -17 29 -18 20 -18 20 10 2 15 -10 30 -15 34 -11 3 3 1 6 -6 6 -7 0 -9
5 -5 12 4 6 3 8 -4 4 -6 -3 -13 -2 -16 3 -3 5 11 9 32 9 67 0 67 1 46 17 -18
14 -18 16 9 19 6 1 11 7 10 14 -2 7 0 11 5 11 21 -4 32 2 26 14 -6 9 -4 9 7
-1 18 -16 32 -15 26 2 -4 11 -1 13 10 9 12 -5 14 -3 8 7 -5 8 -4 11 3 6 6 -3
15 2 21 11 6 10 11 12 11 6 0 -7 10 -13 22 -13 21 0 21 0 2 15 -18 14 -18 14
4 8 12 -3 22 -10 22 -17 0 -6 5 -3 11 7 6 9 15 14 21 11 7 -4 8 -2 4 4 -4 7
-1 12 9 12 10 0 13 -5 9 -12 -4 -7 -3 -10 1 -5 5 4 9 16 10 26 1 18 0 18 -24
3 -14 -9 -30 -21 -34 -27 -5 -6 -7 -4 -4 5 2 8 13 20 25 26 12 6 19 13 16 17
-3 3 2 4 11 3 9 -1 20 -8 24 -15 6 -10 10 -9 14 2 4 10 14 14 29 11 21 -4 21
-4 3 5 -11 4 -23 7 -27 4 -5 -2 -8 0 -8 5 0 12 49 34 60 27 5 -3 7 -14 5 -25
-2 -12 0 -18 5 -15 4 3 6 20 4 38 -4 31 -4 32 9 8 12 -20 15 -21 20 -7 4 10 3
15 -3 11 -6 -3 -10 -1 -10 6 0 7 8 9 21 6 14 -4 17 -2 11 6 -7 8 -5 17 6 27
14 13 15 13 10 -1 -8 -20 7 -46 16 -30 4 6 2 11 -4 11 -6 0 -5 11 5 30 18 35
21 37 21 11 0 -11 -4 -17 -8 -15 -4 3 -8 1 -8 -4 0 -12 26 -23 34 -15 3 4 1
12 -5 19 -9 10 -7 15 5 20 9 3 13 10 10 15 -3 5 0 9 5 9 14 0 14 -13 -1 -28
-9 -9 -9 -12 0 -12 7 0 12 5 12 10 0 6 7 10 15 10 8 0 15 5 15 11 0 5 -6 7
-12 4 -7 -4 -4 1 7 10 11 9 19 21 17 26 -1 6 2 8 8 4 7 -4 7 -13 -1 -28 -7
-16 -4 -14 11 6 12 15 26 24 32 21 10 -6 7 28 -3 36 -4 3 -1 10 6 17 10 10 14
9 19 -3 3 -8 2 -13 -3 -9 -11 6 -8 -22 4 -32 4 -4 5 -3 1 4 -3 6 -2 14 3 17 5
3 7 15 4 26 -4 15 -1 18 16 15 12 -2 19 0 16 5 -3 5 -18 7 -33 4 l-27 -4 26
15 c22 12 26 21 24 50 -1 26 2 35 11 31 7 -3 16 -1 19 5 4 5 3 9 -2 8 -20 -3
-30 2 -30 16 0 11 6 13 21 9 25 -8 20 -1 -11 15 -19 10 -21 9 -18 -9 2 -11 0
-18 -5 -15 -11 7 -5 41 8 38 6 -1 9 5 7 15 -1 9 3 20 9 24 7 5 7 8 -3 8 -11 0
-11 3 0 17 8 9 9 14 3 10 -11 -6 -21 6 -22 27 0 5 -6 13 -14 17 -8 6 -9 9 -1
9 13 0 12 17 -1 40 -5 8 -6 12 -1 8 4 -4 14 0 22 10 9 10 11 11 7 2 -7 -12 -5
-13 8 -3 8 7 17 12 19 10 2 -1 3 0 1 3 -4 5 -9 6 -35 9 -12 1 -16 40 -7 61 1
3 2 9 1 13 -1 4 8 3 20 -3 11 -7 23 -9 26 -7 2 3 -5 8 -16 12 -12 3 -19 10
-16 15 3 5 0 12 -6 16 -8 4 -9 3 -5 -4 4 -7 3 -12 -3 -12 -5 0 -9 9 -8 19 1
12 6 17 15 13 12 -4 12 -1 2 19 -13 23 -12 23 6 9 17 -13 18 -13 7 0 -6 8 -11
20 -11 25 0 6 5 16 11 24 9 11 9 13 1 8 -7 -4 -15 0 -18 9 -4 12 -2 15 9 11 8
-4 17 -1 21 5 4 6 3 8 -3 5 -6 -4 -19 1 -29 9 -10 9 -14 13 -9 11 6 -3 16 2
24 10 12 13 11 14 -6 9 -13 -4 -23 -2 -26 7 -3 8 1 14 9 14 7 0 11 -4 8 -9 -3
-4 2 -5 11 -2 14 6 14 8 -2 21 -10 8 -13 12 -6 9 7 -4 10 1 8 11 -1 10 5 27
14 38 15 18 15 19 -1 6 -25 -18 -25 5 0 33 16 20 16 20 0 7 -16 -12 -18 -11
-18 4 0 10 -7 23 -16 29 -13 10 -13 12 5 12 11 0 18 -4 15 -7 -2 -4 0 -10 5
-13 13 -8 8 14 -8 39 -9 15 -11 16 -7 3 7 -24 -1 -23 -14 2 -6 11 -7 20 -3 19
4 -1 17 -1 28 0 18 1 18 2 -3 17 -12 8 -20 20 -17 25 4 5 0 9 -7 9 -8 0 -9 3
-3 8 13 8 13 22 1 42 -5 8 -6 12 -1 8 4 -4 14 0 22 10 9 10 11 11 7 2 -7 -12
-5 -13 8 -3 8 7 18 11 21 8 4 -3 4 -2 1 2 -6 8 -10 9 -37 12 -12 1 -16 40 -7
61 1 3 2 9 1 13 -1 4 8 3 20 -3 11 -7 23 -9 26 -7 2 3 -5 8 -16 12 -12 3 -19
10 -16 15 3 5 0 12 -6 16 -8 4 -9 3 -5 -4 4 -7 3 -12 -3 -12 -5 0 -9 9 -8 19
1 12 6 17 15 13 12 -4 12 -1 2 19 -13 23 -12 23 6 9 17 -13 18 -13 8 0 -12 18
-12 30 0 49 6 9 5 12 -1 8 -6 -4 -14 0 -17 9 -4 12 -2 15 9 11 8 -4 17 -1 21
5 4 6 3 8 -3 5 -6 -4 -19 1 -29 9 -10 9 -14 13 -9 11 6 -3 16 2 24 10 12 13
11 14 -6 9 -13 -4 -23 -2 -26 7 -3 8 1 14 9 14 7 0 11 -4 8 -9 -3 -4 2 -5 11
-2 14 6 14 8 -2 21 -10 8 -13 12 -6 9 7 -4 10 1 8 11 -1 10 5 27 14 38 15 18
15 19 -1 6 -25 -18 -25 5 0 33 16 20 16 20 0 7 -16 -12 -18 -11 -18 4 0 10 -7
23 -16 29 -13 10 -13 12 5 12 11 0 18 -4 15 -7 -2 -4 0 -10 5 -13 13 -8 8 14
-8 39 -9 15 -11 16 -7 3 7 -24 -1 -23 -14 2 -6 11 -7 20 -3 19 4 -1 17 -1 28
0 18 1 18 2 -3 17 -12 8 -20 20 -17 25 4 5 0 9 -7 9 -8 0 -9 3 -3 8 13 8 13
22 1 42 -5 8 -6 12 -1 8 4 -4 14 0 22 10 9 10 11 11 7 2 -7 -12 -5 -13 8 -3 8
7 18 11 21 8 4 -3 4 -2 1 2 -6 8 -10 9 -37 12 -12 1 -16 40 -7 61 1 3 2 9 1
13 -1 4 8 3 20 -3 11 -7 23 -9 26 -7 2 3 -5 8 -16 12 -12 3 -19 10 -16 15 3 5
0 12 -6 16 -8 4 -9 3 -5 -4 4 -7 3 -12 -3 -12 -5 0 -9 9 -8 19 1 12 6 17 15
13 12 -4 12 -1 2 19 -13 23 -12 23 6 9 17 -13 18 -13 8 0 -12 18 -12 30 0 49
6 9 5 12 -1 8 -6 -4 -14 0 -17 9 -4 12 -2 15 9 11 8 -4 17 -1 21 5 4 6 3 8 -3
5 -6 -4 -19 1 -29 9 -10 9 -14 13 -9 11 6 -3 16 2 24 10 12 13 11 14 -6 9 -13
-4 -23 -2 -26 7 -3 8 1 14 9 14 7 0 11 -4 8 -9 -3 -4 2 -5 11 -2 14 6 14 8 -2
21 -10 8 -13 12 -6 9 7 -4 10 1 8 11 -1 10 5 27 14 38 15 18 15 19 -1 6 -25
-18 -25 5 0 33 16 20 16 20 0 7 -16 -12 -18 -11 -18 4 0 10 -7 23 -16 29 -13
10 -13 12 5 12 11 0 18 -4 15 -7 -2 -4 0 -10 5 -13 13 -8 8 14 -8 39 -9 15
-11 16 -7 3 7 -24 -1 -23 -14 2 -6 11 -7 20 -3 19 4 -1 17 -1 28 0 18 1 18 2
-3 17 -12 8 -20 20 -17 25 4 5 0 9 -7 9 -10 0 -10 2 0 9 19 12 19 15 2 37 -8
10 -10 16 -6 12 5 -4 15 0 23 10 9 10 11 11 7 2 -7 -12 -5 -13 8 -3 8 7 18 11
21 8 4 -3 4 -2 1 2 -6 8 -10 9 -37 12 -9 1 -13 12 -12 29 1 15 -2 33 -8 39 -6
9 -4 15 7 19 25 9 19 26 -6 19 -13 -3 -18 -3 -12 2 6 4 13 16 17 25 4 12 2 15
-9 11 -8 -3 -14 1 -14 10 0 9 7 14 18 12 9 -1 11 0 4 2 -7 3 -9 10 -6 16 5 8
2 8 -7 0 -17 -17 -37 -17 -21 -1 7 7 12 17 12 23 0 5 -5 3 -10 -5 -9 -13 -10
-13 -10 0 0 19 -41 24 -53 7 -5 -7 -6 -3 -2 11 7 24 -4 29 -23 10 -7 -7 -12
-10 -13 -8 0 3 -2 13 -4 23 -3 14 0 16 10 7 9 -8 15 -8 20 0 4 6 1 9 -7 8 -8
-2 -12 5 -11 17 1 17 -1 17 -19 -5 -15 -19 -18 -20 -14 -6 6 16 4 17 -9 6 -18
-15 -20 0 -2 19 8 9 8 12 0 7 -6 -3 -13 1 -15 11 -3 15 -5 14 -10 -5 -3 -12
-2 -20 3 -16 5 3 6 -2 2 -11 -4 -13 -8 -14 -14 -4 -4 7 -6 16 -4 20 3 3 -7 11
-21 18 -31 14 -37 14 -29 1 9 -15 -1 -12 -14 4 -9 11 -9 16 0 22 8 5 9 3 4 -6
-5 -9 -4 -11 4 -6 16 10 4 26 -15 19 -9 -3 -20 0 -24 7 -7 11 -12 11 -26 -1
-10 -8 -15 -9 -11 -3 4 7 -1 14 -12 17 -14 3 -18 11 -15 28 l5 24 -12 -22 c-7
-13 -15 -23 -18 -23 -11 0 -11 44 0 51 7 4 4 9 -6 12 -9 4 -13 3 -10 -2 3 -5
0 -13 -7 -18 -24 -14 -37 -11 -33 8 2 11 -2 19 -10 19 -9 0 -12 7 -9 18 5 16
5 16 -6 0 -11 -18 -31 -25 -29 -10 3 18 -2 32 -12 32 -5 0 -7 -4 -4 -10 3 -5
1 -10 -5 -10 -7 0 -9 8 -4 22 6 21 5 22 -11 8 -17 -14 -17 -13 -11 10 5 18 4
21 -3 11 -10 -16 -45 -25 -35 -9 7 10 -21 45 -48 59 -14 7 -16 6 -12 -6 3 -8
10 -12 15 -9 15 9 10 -3 -8 -17 -9 -8 -14 -9 -11 -4 3 6 0 16 -8 23 -8 7 -14
10 -14 7 0 -3 -15 2 -32 12 -18 9 -37 16 -41 15 -5 -1 -5 3 -1 9 5 9 2 10 -10
6 -9 -4 -15 -3 -12 2 8 12 -18 32 -35 29 -10 -2 -13 6 -12 27 2 20 0 26 -6 16
-8 -12 -10 -12 -14 0 -2 8 -3 3 -1 -11 2 -14 1 -19 -2 -12 -3 6 -9 10 -13 7
-5 -2 -7 7 -5 20 1 14 -2 23 -7 19 -5 -3 -9 1 -9 8 0 9 -3 9 -10 -2 -5 -8 -19
-16 -30 -16 -11 -1 -18 1 -14 5 3 3 11 6 17 6 7 0 13 9 14 20 l3 20 -9 -20
c-8 -18 -10 -18 -16 -3 -3 9 -13 19 -21 22 -9 3 -12 1 -9 -4 3 -6 2 -10 -3
-10 -6 0 -12 6 -15 14 -3 8 -16 12 -31 11 -14 -2 -26 1 -26 6 0 6 -5 7 -12 3
-6 -4 -8 -3 -4 4 3 6 -2 15 -11 21 -10 5 -17 12 -15 15 1 3 0 6 -4 5 -3 0 -17
7 -32 17 -27 17 -27 17 -9 -3 14 -16 14 -20 3 -20 -8 0 -14 5 -13 11 1 5 -4
11 -10 12 -7 1 -16 3 -20 4 -5 1 -12 1 -18 0 -5 -1 -7 2 -3 6 4 4 0 13 -10 20
-13 9 -19 9 -25 1 -5 -7 -6 -2 -2 10 5 19 2 23 -17 23 -40 0 -57 3 -53 10 2 4
-7 17 -20 28 -27 23 -40 29 -30 12 3 -5 1 -10 -4 -10 -14 0 -14 13 1 28 9 9 9
12 0 12 -6 0 -16 -8 -21 -17 -8 -15 -11 -15 -12 -3 -1 8 -1 19 0 23 1 5 -9 6
-21 2 -18 -5 -20 -4 -8 4 11 8 12 11 2 11 -8 0 -10 5 -6 13 6 10 4 10 -7 0 -7
-7 -18 -13 -23 -13 -6 0 -4 5 4 10 13 8 12 10 -2 10 -10 0 -18 -6 -18 -12 0
-7 -5 -5 -11 5 -6 10 -8 21 -5 24 3 4 6 1 6 -6 0 -7 4 -9 10 -6 6 4 5 11 -2
19 -14 14 -40 -2 -30 -18 3 -5 0 -6 -7 -2 -9 6 -9 11 0 22 9 11 8 14 -5 14 -9
0 -16 -4 -16 -10 0 -5 -5 -10 -11 -10 -8 0 -8 4 -2 13 12 15 13 48 1 41 -4 -3
-8 0 -8 7 0 7 -3 9 -6 6 -4 -4 -2 -13 5 -20 9 -11 7 -17 -6 -28 -16 -13 -17
-12 -4 4 12 15 11 17 -3 17 -13 0 -16 6 -11 23 5 20 5 20 -10 -3 l-15 -25 4
26 c3 21 0 25 -17 25 -13 -1 -21 4 -19 12 4 21 -14 13 -25 -10 -10 -21 -11
-21 -10 10 0 18 -4 36 -8 40 -4 4 -5 -3 -2 -15 3 -13 1 -23 -4 -23 -9 0 -13
15 -10 33 1 5 -2 6 -7 3 -5 -3 -18 1 -28 8 -12 9 -24 11 -35 5 -18 -9 -48 15
-35 28 3 3 6 2 6 -4 0 -5 7 -10 16 -10 15 0 14 2 -1 14 -16 11 -22 10 -39 -5
-10 -9 -16 -11 -12 -4 4 6 2 12 -3 12 -6 0 -11 5 -11 11 0 8 5 8 15 -1 10 -9
15 -9 15 -1 0 6 -4 11 -9 11 -5 0 -11 9 -14 21 -3 12 -10 18 -17 14 -6 -4 -21
1 -32 12 -12 10 -18 13 -15 7 13 -22 -29 -22 -43 0 -12 19 -11 20 3 8 10 -9
17 -10 22 -2 4 6 1 9 -7 8 -7 -2 -12 3 -10 11 3 12 0 12 -12 2 -12 -10 -17 -9
-25 7 -6 11 -7 23 -3 27 4 5 1 5 -6 1 -9 -5 -9 -13 -2 -26 6 -11 6 -21 1 -24
-11 -7 -33 18 -24 27 3 4 -1 7 -11 7 -11 0 -15 4 -10 13 5 7 0 6 -11 -3 -17
-13 -18 -13 -13 1 4 9 -2 20 -13 28 -12 7 -17 17 -12 24 4 8 2 8 -9 -1 -10 -8
-14 -21 -11 -30 5 -14 4 -15 -8 -4 -11 10 -11 16 -1 33 11 17 11 20 0 13 -7
-5 -21 -10 -32 -11 -16 -3 -17 -1 -5 14 13 16 12 17 -3 5 -9 -8 -14 -20 -11
-28 3 -8 0 -14 -5 -14 -6 0 -9 14 -7 30 4 32 1 39 -9 15z m104 -55 c6 -11 8
-20 6 -20 -3 0 -10 9 -16 20 -6 11 -8 20 -6 20 3 0 10 -9 16 -20z m114 -86 c3
-8 2 -12 -4 -9 -6 3 -10 10 -10 16 0 14 7 11 14 -7z m106 -19 c5 3 10 -1 10
-10 0 -13 -4 -14 -20 -5 -14 8 -20 8 -20 0 0 -7 -5 -6 -14 2 -17 16 2 32 21
17 7 -6 17 -8 23 -4z m-674 -47 c4 -7 3 -8 -4 -4 -7 4 -12 2 -12 -5 0 -7 -3
-10 -6 -6 -6 5 3 27 11 27 2 0 7 -5 11 -12z m824 -64 c0 -1 -5 -6 -12 -10 -7
-4 -8 -3 -4 4 6 10 -4 16 -25 14 -3 -1 -6 5 -6 13 0 11 5 10 24 -2 13 -8 23
-17 23 -19z m90 -58 c0 -4 -6 -3 -13 3 -8 6 -16 9 -19 6 -2 -3 -5 1 -5 9 0 11
4 12 19 3 10 -7 18 -16 18 -21z m-1155 -6 c4 -6 3 -10 -2 -9 -20 3 -27 -2 -13
-11 12 -7 10 -9 -6 -8 -18 2 -20 5 -10 20 12 20 22 23 31 8z m35 6 c0 -3 -4
-8 -10 -11 -5 -3 -10 -1 -10 4 0 6 5 11 10 11 6 0 10 -2 10 -4z m1084 -44 c3
-5 -1 -9 -9 -9 -8 0 -12 4 -9 9 3 4 7 8 9 8 2 0 6 -4 9 -8z m-1255 -55 c0 -9
-2 -8 -6 1 -2 6 -10 9 -15 6 -7 -4 -8 -2 -4 5 9 13 26 5 25 -12z m26 -47 c-3
-5 -12 -10 -18 -10 -7 0 -6 4 3 10 19 12 23 12 15 0z m1460 -48 c-3 -3 -11 0
-18 7 -9 10 -8 11 6 5 10 -3 15 -9 12 -12z m318 -97 c-3 -9 -8 -14 -10 -11 -3
3 -2 9 2 15 9 16 15 13 8 -4z m92 -55 c-3 -5 -12 -10 -18 -10 -7 0 -6 4 3 10
19 12 23 12 15 0z m50 -20 c3 -5 1 -10 -4 -10 -6 0 -11 5 -11 10 0 6 2 10 4
10 3 0 8 -4 11 -10z m60 -29 c3 -5 1 -12 -5 -16 -5 -3 -10 1 -10 9 0 18 6 21
15 7z m-2760 -130 c3 -5 2 -12 -3 -15 -5 -3 -9 1 -9 9 0 17 3 19 12 6z m115
-17 c0 -8 -19 -13 -24 -6 -3 5 1 9 9 9 8 0 15 -2 15 -3z m2910 -20 c0 -22 -16
-17 -17 6 -1 11 2 18 8 15 5 -4 9 -13 9 -21z m-3080 5 c0 -5 -4 -7 -10 -4 -5
3 -10 1 -10 -6 0 -7 -3 -10 -6 -6 -8 7 4 27 17 27 5 0 9 -5 9 -11z m3460 -223
c0 -3 -4 -8 -10 -11 -5 -3 -10 -1 -10 4 0 6 5 11 10 11 6 0 10 -2 10 -4z
m-3890 -101 c-7 -8 -17 -15 -23 -15 -6 0 -2 7 9 15 25 19 30 19 14 0z m4055 4
c11 -16 1 -19 -13 -3 -7 8 -8 14 -3 14 5 0 13 -5 16 -11z m-4255 -429 c-13 -8
-12 -10 4 -10 11 0 17 -3 13 -6 -3 -4 -13 -4 -22 0 -18 6 -11 26 8 26 7 0 6
-4 -3 -10z m4327 -65 c0 -8 -4 -15 -9 -15 -4 0 -8 7 -8 15 0 8 4 15 8 15 5 0
9 -7 9 -15z m-4 -155 c3 -11 2 -20 -3 -20 -4 0 -10 11 -12 25 -6 29 7 25 15
-5z m-4309 -116 c5 -14 4 -15 -9 -4 -17 14 -19 20 -6 20 5 0 12 -7 15 -16z
m-7 -179 c0 -8 -4 -12 -9 -9 -5 3 -6 10 -3 15 9 13 12 11 12 -6z m7 -41 c3 -8
2 -12 -4 -9 -6 3 -10 10 -10 16 0 14 7 11 14 -7z m-4 -139 c0 -8 -4 -15 -8
-15 -5 0 -9 7 -9 15 0 8 4 15 9 15 4 0 8 -7 8 -15z m4317 -10 c0 -8 -4 -15 -9
-15 -4 0 -8 7 -8 15 0 8 4 15 8 15 5 0 9 -7 9 -15z m-4 -155 c3 -11 2 -20 -3
-20 -4 0 -10 11 -12 25 -6 29 7 25 15 -5z m-4313 -310 c0 -5 -2 -10 -4 -10 -3
0 -8 5 -11 10 -3 6 -1 10 4 10 6 0 11 -4 11 -10z m4 -126 c5 -14 4 -15 -9 -4
-17 14 -19 20 -6 20 5 0 12 -7 15 -16z m4313 -49 c0 -8 -4 -15 -9 -15 -4 0 -8
7 -8 15 0 8 4 15 8 15 5 0 9 -7 9 -15z m-4320 -130 c0 -8 -4 -12 -9 -9 -5 3
-6 10 -3 15 9 13 12 11 12 -6z m4316 -25 c3 -11 2 -20 -3 -20 -4 0 -10 11 -12
25 -6 29 7 25 15 -5z m-4309 -98 c2 -4 -4 -9 -15 -9 -11 -1 -17 2 -14 8 7 11
22 12 29 1z m4316 -276 c0 -2 -7 -7 -16 -10 -8 -3 -12 -2 -9 4 6 10 25 14 25
6z m-4330 -46 c-13 -8 -12 -10 4 -10 11 0 17 -3 13 -6 -3 -4 -13 -4 -22 0 -18
6 -11 26 8 26 7 0 6 -4 -3 -10z m4325 -38 c-3 -3 -11 0 -18 7 -9 10 -8 11 6 5
10 -3 15 -9 12 -12z m2 -29 c0 -10 -6 -24 -14 -31 -7 -7 -13 -9 -13 -3 0 5 4
12 10 16 5 3 7 12 3 20 -3 8 -1 15 4 15 5 0 10 -8 10 -17z m-4320 -33 c-2 -23
-10 -17 -12 10 -1 10 2 17 6 14 4 -2 7 -13 6 -24z m74 -47 c13 -16 12 -17 -3
-4 -10 7 -18 15 -18 17 0 8 8 3 21 -13z m-31 -33 c0 -5 -5 -10 -11 -10 -5 0
-7 5 -4 10 3 6 8 10 11 10 2 0 4 -4 4 -10z m4212 -32 c-7 -7 -12 -8 -12 -2 0
14 12 26 19 19 2 -3 -1 -11 -7 -17z m-4132 -28 c0 -5 -5 -10 -11 -10 -5 0 -7
5 -4 10 3 6 8 10 11 10 2 0 4 -4 4 -10z m3954 2 c3 -5 -1 -9 -9 -9 -8 0 -12 4
-9 9 3 4 7 8 9 8 2 0 6 -4 9 -8z m-3840 -83 c-3 -5 2 -9 10 -9 9 0 16 -5 16
-10 0 -7 -6 -7 -19 -1 -23 13 -37 43 -16 34 8 -3 12 -9 9 -14z m234 -121 c-2
-7 2 -13 7 -13 6 0 9 4 7 8 -1 5 2 6 8 2 8 -5 7 -11 -1 -21 -14 -18 -41 0 -32
22 6 17 15 19 11 2z m64 -50 c-7 -7 -12 -8 -12 -2 0 14 12 26 19 19 2 -3 -1
-11 -7 -17z m298 -84 c0 -8 -19 -13 -24 -6 -3 5 1 9 9 9 8 0 15 -2 15 -3z
m2700 -68 c0 -3 -4 -8 -10 -11 -5 -3 -10 -1 -10 4 0 6 5 11 10 11 6 0 10 -2
10 -4z m-65 -28 c-9 -6 -19 -7 -22 -4 -4 3 -1 6 6 6 7 0 9 4 6 10 -4 6 1 7 11
3 15 -6 15 -7 -1 -15z m-145 -2 c0 -2 -7 -7 -16 -10 -8 -3 -12 -2 -9 4 6 10
25 14 25 6z m-2198 -168 c-8 -8 -9 -4 -5 13 4 13 8 18 11 10 2 -7 -1 -18 -6
-23z m1888 -12 c0 -2 -8 -10 -17 -17 -16 -13 -17 -12 -4 4 13 16 21 21 21 13z
m140 -11 c0 -1 -6 -7 -13 -13 -10 -8 -13 -6 -13 7 0 11 6 17 13 14 7 -3 13 -6
13 -8z m-305 -165 c-3 -5 -12 -10 -18 -10 -7 0 -6 4 3 10 19 12 23 12 15 0z
m-1305 -32 c0 -4 -4 -8 -9 -8 -6 0 -12 4 -15 8 -3 5 1 9 9 9 8 0 15 -4 15 -9z
m215 -136 c-3 -3 -11 0 -18 7 -9 10 -8 11 6 5 10 -3 15 -9 12 -12z m785 -4 c0
6 5 12 11 12 8 0 8 -5 -1 -15 -13 -16 -30 -11 -30 8 0 7 4 6 10 -3 6 -10 10
-11 10 -2z m-60 -43 c0 -7 -30 -13 -34 -7 -3 4 4 9 15 9 10 1 19 0 19 -2z
m-616 -17 c-5 -8 -1 -9 12 -4 14 5 16 4 7 -5 -6 -6 -16 -8 -22 -5 -14 9 -14
26 0 26 5 0 7 -5 3 -12z m216 -107 c0 -5 -7 -12 -16 -15 -14 -5 -15 -4 -4 9
14 17 20 19 20 6z m66 -20 c8 7 14 7 14 1 0 -12 -26 -23 -34 -15 -3 4 -6 11
-5 17 0 6 3 5 6 -2 4 -10 8 -10 19 -1z"/>
<path d="M2736 4993 c-6 -14 -5 -15 5 -6 7 7 10 15 7 18 -3 3 -9 -2 -12 -12z"/>
<path d="M2300 4935 c13 -16 30 -11 30 8 0 7 -4 6 -10 -3 -6 -10 -10 -11 -10
-2 0 6 -5 12 -11 12 -8 0 -8 -5 1 -15z"/>
<path d="M1996 4767 c3 -10 9 -15 12 -12 3 3 0 11 -7 18 -10 9 -11 8 -5 -6z"/>
<path d="M1833 4685 c0 -8 4 -15 9 -15 4 0 8 4 8 9 0 6 -4 12 -8 15 -5 3 -9
-1 -9 -9z"/>
<path d="M3330 4646 c0 -3 9 -10 20 -16 11 -6 20 -8 20 -6 0 3 -9 10 -20 16
-11 6 -20 8 -20 6z"/>
<path d="M3409 4595 c9 -20 34 -45 58 -59 19 -11 24 11 6 25 -14 12 -16 12 -9
0 6 -9 5 -12 -5 -9 -8 3 -13 15 -13 27 1 16 -2 19 -9 12 -7 -7 -15 -5 -24 7
-13 15 -13 15 -4 -3z"/>
<path d="M3526 4522 c-3 -5 8 -19 24 -31 17 -12 30 -17 30 -11 0 5 -5 10 -12
10 -6 0 -8 3 -5 7 8 7 -11 33 -24 33 -4 0 -10 -4 -13 -8z m29 -12 c3 -6 -1 -7
-9 -4 -18 7 -21 14 -7 14 6 0 13 -4 16 -10z"/>
<path d="M1456 4482 c-3 -5 1 -9 9 -9 8 0 12 4 9 9 -3 4 -7 8 -9 8 -2 0 -6 -4
-9 -8z"/>
<path d="M3635 4480 c-3 -5 -1 -10 4 -10 6 0 11 5 11 10 0 6 -2 10 -4 10 -3 0
-8 -4 -11 -10z"/>
<path d="M1430 4429 c-10 -17 -14 -18 -28 -7 -15 12 -16 11 -4 -4 13 -16 16
-16 38 -2 13 9 21 20 18 25 -8 13 -12 11 -24 -12z"/>
<path d="M3691 4431 c-11 -7 -9 -12 10 -22 21 -11 22 -10 12 3 -7 8 -10 18 -6
21 9 10 1 8 -16 -2z"/>
<path d="M3904 4288 c-5 -7 -3 -8 5 -4 7 5 21 0 32 -10 10 -9 19 -13 19 -8 0
5 5 1 11 -9 5 -9 23 -24 39 -32 28 -14 30 -14 40 7 10 21 10 22 -3 5 -14 -17
-16 -17 -39 7 -12 13 -30 26 -38 28 -8 2 -21 9 -28 16 -17 15 -29 15 -38 0z"/>
<path d="M1171 4282 c-1 -7 -6 -10 -13 -6 -6 4 -8 3 -5 -4 8 -12 32 -10 44 3
4 4 3 5 -4 2 -6 -4 -14 -1 -16 5 -4 10 -6 10 -6 0z"/>
<path d="M840 4072 c0 -12 3 -12 15 -2 8 7 15 13 15 15 0 1 -7 2 -15 2 -8 0
-15 -7 -15 -15z"/>
<path d="M4275 4081 c-3 -5 -1 -12 5 -16 5 -3 10 1 10 9 0 18 -6 21 -15 7z"/>
<path d="M4387 4059 c7 -7 15 -10 18 -7 3 3 -2 9 -12 12 -14 6 -15 5 -6 -5z"/>
<path d="M4363 4043 c4 -6 4 -13 0 -16 -5 -2 -3 -2 4 -1 6 2 14 -2 17 -9 3 -8
5 -8 5 -1 1 6 -7 18 -16 25 -9 8 -14 9 -10 2z"/>
<path d="M720 4022 c0 -6 -8 -9 -17 -6 -15 5 -16 4 -3 -5 16 -11 40 3 27 16
-4 3 -7 1 -7 -5z"/>
<path d="M4426 4022 c-3 -5 1 -9 9 -9 8 0 12 4 9 9 -3 4 -7 8 -9 8 -2 0 -6 -4
-9 -8z"/>
<path d="M4475 3991 c-3 -5 -2 -12 3 -15 5 -3 9 1 9 9 0 17 -3 19 -12 6z"/>
<path d="M590 3934 c0 -8 5 -12 10 -9 6 4 8 11 5 16 -9 14 -15 11 -15 -7z"/>
<path d="M560 3919 c0 -5 5 -7 10 -4 6 3 10 8 10 11 0 2 -4 4 -10 4 -5 0 -10
-5 -10 -11z"/>
<path d="M406 3845 c-11 -8 -15 -15 -9 -15 6 0 16 7 23 15 16 19 11 19 -14 0z"/>
<path d="M4734 3792 c3 -5 0 -13 -6 -15 -9 -4 -10 -6 -1 -6 17 -1 25 16 12 25
-7 4 -9 3 -5 -4z"/>
<path d="M4736 3735 c-3 -10 -11 -13 -18 -9 -10 6 -10 4 -2 -7 6 -8 10 -22 9
-31 -4 -24 10 -31 26 -12 10 12 10 15 -1 12 -16 -4 -20 21 -7 40 6 7 8 15 5
18 -3 3 -8 -2 -12 -11z"/>
<path d="M355 3690 c-3 -6 1 -7 9 -4 18 7 21 14 7 14 -6 0 -13 -4 -16 -10z"/>
<path d="M359 3653 c-13 -16 -12 -17 4 -4 9 7 17 15 17 17 0 8 -8 3 -21 -13z"/>
<path d="M383 3648 c-5 -7 -8 -19 -7 -25 1 -7 2 -17 3 -23 3 -26 17 -6 17 25
0 40 0 39 -13 23z"/>
<path d="M4724 3576 c0 -26 3 -32 12 -25 7 5 11 18 9 27 -2 9 -4 20 -4 25 -1
4 -5 7 -9 7 -4 0 -8 -16 -8 -34z"/>
<path d="M4749 3543 c-13 -16 -12 -17 4 -4 9 7 17 15 17 17 0 8 -8 3 -21 -13z"/>
<path d="M359 3333 c-13 -16 -12 -17 4 -4 16 13 21 21 13 21 -2 0 -10 -8 -17
-17z"/>
<path d="M383 3328 c-5 -7 -8 -19 -7 -25 1 -7 2 -17 3 -23 3 -26 17 -6 17 25
0 40 0 39 -13 23z"/>
<path d="M4750 3270 c-9 -6 -10 -10 -3 -10 6 0 15 5 18 10 8 12 4 12 -15 0z"/>
<path d="M4750 3181 c0 -6 4 -13 10 -16 6 -3 7 1 4 9 -7 18 -14 21 -14 7z"/>
<path d="M364 3158 c-4 -6 -3 -8 4 -4 6 3 13 2 17 -4 3 -5 1 -10 -6 -10 -7 0
-10 -3 -6 -6 10 -11 26 6 20 21 -6 18 -19 19 -29 3z"/>
<path d="M4754 3129 c-3 -6 -2 -15 3 -20 5 -5 9 -1 9 11 0 23 -2 24 -12 9z"/>
<path d="M353 3053 c0 -9 4 -10 14 -2 7 6 13 12 13 14 0 1 -6 2 -13 2 -8 0
-14 -6 -14 -14z"/>
<path d="M4729 3068 c-10 -32 2 -61 15 -39 4 5 2 12 -4 16 -6 4 -8 11 -5 16 4
5 4 9 1 9 -3 0 -6 -1 -7 -2z"/>
<path d="M4724 2936 c0 -26 3 -32 12 -25 7 5 11 18 9 27 -2 9 -4 20 -4 25 -1
4 -5 7 -9 7 -4 0 -8 -16 -8 -34z"/>
<path d="M4749 2903 c-13 -16 -12 -17 4 -4 9 7 17 15 17 17 0 8 -8 3 -21 -13z"/>
<path d="M355 2810 c-3 -6 1 -7 9 -4 18 7 21 14 7 14 -6 0 -13 -4 -16 -10z"/>
<path d="M4750 2630 c-9 -6 -10 -10 -3 -10 6 0 15 5 18 10 8 12 4 12 -15 0z"/>
<path d="M359 2533 c-13 -16 -12 -17 4 -4 9 7 17 15 17 17 0 8 -8 3 -21 -13z"/>
<path d="M4750 2541 c0 -6 4 -13 10 -16 6 -3 7 1 4 9 -7 18 -14 21 -14 7z"/>
<path d="M383 2528 c-5 -7 -8 -19 -7 -25 1 -7 2 -17 3 -23 3 -26 17 -6 17 25
0 40 0 39 -13 23z"/>
<path d="M4754 2489 c-3 -6 -2 -15 3 -20 5 -5 9 -1 9 11 0 23 -2 24 -12 9z"/>
<path d="M4729 2428 c-10 -32 2 -61 15 -39 4 5 2 12 -4 16 -6 4 -8 11 -5 16 4
5 4 9 1 9 -3 0 -6 -1 -7 -2z"/>
<path d="M376 2411 c-4 -5 -2 -12 4 -16 6 -4 7 -11 4 -17 -4 -6 -2 -8 4 -5 10
7 11 32 0 42 -3 4 -9 2 -12 -4z"/>
<path d="M354 2320 c0 -13 4 -16 10 -10 7 7 7 13 0 20 -6 6 -10 3 -10 -10z"/>
<path d="M4724 2296 c0 -26 3 -32 12 -25 7 5 11 18 9 27 -2 9 -4 20 -4 25 -1
4 -5 7 -9 7 -4 0 -8 -16 -8 -34z"/>
<path d="M356 2267 c3 -10 9 -15 12 -12 3 3 0 11 -7 18 -10 9 -11 8 -5 -6z"/>
<path d="M4749 2263 c-13 -16 -12 -17 4 -4 9 7 17 15 17 17 0 8 -8 3 -21 -13z"/>
<path d="M364 2198 c-4 -6 -3 -8 4 -4 6 3 13 2 17 -4 3 -5 1 -10 -6 -10 -7 0
-10 -3 -6 -6 10 -11 26 6 20 21 -6 18 -19 19 -29 3z"/>
<path d="M353 2093 c0 -9 4 -10 14 -2 7 6 13 12 13 14 0 1 -6 2 -13 2 -8 0
-14 -6 -14 -14z"/>
<path d="M4750 1990 c-9 -6 -10 -10 -3 -10 6 0 15 5 18 10 8 12 4 12 -15 0z"/>
<path d="M4750 1901 c0 -6 4 -13 10 -16 6 -3 7 1 4 9 -7 18 -14 21 -14 7z"/>
<path d="M4754 1849 c-3 -6 -2 -15 3 -20 5 -5 9 -1 9 11 0 23 -2 24 -12 9z"/>
<path d="M4729 1788 c-10 -32 2 -61 15 -39 4 5 2 12 -4 16 -6 4 -8 11 -5 16 4
5 4 9 1 9 -3 0 -6 -1 -7 -2z"/>
<path d="M359 1733 c-13 -16 -12 -17 4 -4 9 7 17 15 17 17 0 8 -8 3 -21 -13z"/>
<path d="M383 1728 c-5 -7 -8 -19 -7 -25 1 -7 2 -17 3 -23 3 -26 17 -6 17 25
0 40 0 39 -13 23z"/>
<path d="M4724 1656 c0 -26 3 -32 12 -25 7 5 11 18 9 27 -2 9 -4 20 -4 25 -1
4 -5 7 -9 7 -4 0 -8 -16 -8 -34z"/>
<path d="M4749 1623 c-13 -16 -12 -17 4 -4 9 7 17 15 17 17 0 8 -8 3 -21 -13z"/>
<path d="M398 1353 c7 -3 16 -2 19 1 4 3 -2 6 -13 5 -11 0 -14 -3 -6 -6z"/>
<path d="M367 1339 c7 -7 15 -10 18 -7 3 3 -2 9 -12 12 -14 6 -15 5 -6 -5z"/>
<path d="M402 1327 c-8 -9 -8 -17 0 -27 8 -13 9 -12 5 1 -3 9 0 22 6 28 6 6 8
11 5 11 -3 0 -10 -6 -16 -13z"/>
<path d="M490 1220 c0 -5 5 -10 11 -10 5 0 7 5 4 10 -3 6 -8 10 -11 10 -2 0
-4 -4 -4 -10z"/>
<path d="M593 1165 c0 -8 4 -12 9 -9 5 3 6 10 3 15 -9 13 -12 11 -12 -6z"/>
<path d="M4400 1130 c-9 -6 -10 -10 -3 -10 6 0 15 5 18 10 8 12 4 12 -15 0z"/>
<path d="M783 1080 c2 -8 10 -14 16 -12 6 1 11 -4 11 -10 0 -9 4 -8 10 2 8 13
10 12 10 -3 0 -10 5 -15 10 -12 16 10 -7 34 -28 30 -9 -1 -21 3 -25 9 -6 7 -7
6 -4 -4z"/>
<path d="M4208 1010 c-16 -18 -16 -19 2 -17 10 1 16 5 13 11 -4 5 1 7 12 2 15
-5 16 -4 5 9 -7 8 -13 15 -14 14 0 0 -9 -9 -18 -19z"/>
<path d="M4129 972 c-15 -13 -19 -21 -10 -26 6 -4 11 -4 10 1 -3 19 2 27 10
15 6 -10 10 -9 14 7 6 26 5 26 -24 3z"/>
<path d="M1113 855 c0 -8 4 -12 9 -9 5 3 6 10 3 15 -9 13 -12 11 -12 -6z"/>
<path d="M1170 861 c0 -5 7 -12 16 -15 14 -5 15 -4 4 9 -14 17 -20 19 -20 6z"/>
<path d="M1150 841 c0 -6 4 -13 10 -16 6 -3 7 1 4 9 -7 18 -14 21 -14 7z"/>
<path d="M1187 819 c7 -7 15 -10 18 -7 3 3 -2 9 -12 12 -14 6 -15 5 -6 -5z"/>
<path d="M1223 818 c-3 -7 -1 -8 5 -4 6 3 15 -2 21 -11 6 -10 11 -12 11 -5 0
6 1 15 3 19 4 11 -33 12 -40 1z"/>
<path d="M3822 790 c-7 -11 -8 -20 -3 -20 9 0 24 30 18 36 -1 2 -8 -6 -15 -16z"/>
<path d="M3643 688 c3 -9 1 -19 -6 -22 -9 -3 -9 -5 0 -5 18 -1 23 13 11 29 -8
12 -9 12 -5 -2z"/>
<path d="M3660 696 c0 -3 9 -10 20 -16 11 -6 20 -8 20 -6 0 3 -9 10 -20 16
-11 6 -20 8 -20 6z"/>
<path d="M1485 680 c-3 -5 1 -10 10 -10 9 0 13 5 10 10 -3 6 -8 10 -10 10 -2
0 -7 -4 -10 -10z"/>
<path d="M3620 640 c-9 -6 -10 -10 -3 -10 6 0 15 5 18 10 8 12 4 12 -15 0z"/>
<path d="M1615 590 c-7 -12 19 -24 37 -17 7 3 3 6 -10 6 -13 1 -20 5 -17 11 3
6 4 10 1 10 -3 0 -8 -5 -11 -10z"/>
<path d="M3465 580 c1 -11 5 -23 10 -27 4 -5 5 -3 2 4 -4 6 -2 13 4 15 7 2 6
8 -3 16 -12 9 -14 8 -13 -8z"/>
<path d="M1670 562 c0 -5 7 -9 15 -9 8 0 12 4 9 9 -3 4 -9 8 -15 8 -5 0 -9 -4
-9 -8z"/>
<path d="M3395 540 c-3 -5 -1 -10 4 -10 6 0 11 5 11 10 0 6 -2 10 -4 10 -3 0
-8 -4 -11 -10z"/>
<path d="M3315 500 c-2 -3 0 -12 4 -19 6 -10 10 -9 15 4 3 9 10 14 15 10 5 -3
12 -2 15 3 2 4 -7 8 -20 8 -14 0 -27 -3 -29 -6z"/>
<path d="M1850 450 c-6 -11 -8 -20 -6 -20 3 0 10 9 16 20 6 11 8 20 6 20 -3 0
-10 -9 -16 -20z"/>
<path d="M3265 440 c-3 -6 1 -7 9 -4 18 7 21 14 7 14 -6 0 -13 -4 -16 -10z"/>
<path d="M3235 429 c-4 -6 -5 -12 -2 -15 2 -3 7 2 10 11 7 17 1 20 -8 4z"/>
<path d="M2070 340 c0 -5 5 -10 11 -10 5 0 7 5 4 10 -3 6 -8 10 -11 10 -2 0
-4 -4 -4 -10z"/>
<path d="M2177 274 c7 -3 15 -5 18 -4 3 0 15 -9 27 -22 l20 -23 -14 24 c-8 13
-25 25 -39 27 -13 1 -18 0 -12 -2z"/>
<path d="M2820 180 c-9 -6 -10 -10 -3 -10 6 0 15 5 18 10 8 12 4 12 -15 0z"/>
<path d="M2376 159 c3 -5 12 -9 21 -9 12 0 13 -3 4 -14 -9 -11 -9 -16 0 -22 7
-4 9 -3 6 3 -4 6 1 17 10 24 15 12 16 12 10 -3 -3 -10 -1 -20 5 -24 7 -4 8 -3
4 4 -4 7 -2 12 5 12 9 0 8 4 -1 15 -6 8 -15 14 -18 13 -4 0 -9 1 -12 2 -19 7
-39 7 -34 -1z"/>
<path d="M2651 116 c-7 -9 -17 -13 -22 -10 -5 3 -9 0 -9 -5 0 -6 5 -11 11 -11
5 0 7 -6 3 -12 -4 -8 -3 -10 2 -5 5 5 9 14 9 20 0 7 8 12 17 12 9 0 20 4 25 9
4 5 3 6 -4 3 -6 -4 -13 -2 -15 4 -2 7 -9 5 -17 -5z"/>
<path d="M2596 102 c-2 -4 -1 -14 4 -22 7 -11 9 -9 7 8 -1 24 -3 26 -11 14z"/>
<path d="M2485 80 c3 -5 8 -10 11 -10 2 0 4 5 4 10 0 6 -5 10 -11 10 -5 0 -7
-4 -4 -10z"/>
</g>
</svg>
